<svg xmlns="http://www.w3.org/2000/svg" width="24.857" height="81.225" viewBox="0 0 24.857 81.225">
  <g id="Stone_Pointer_-_Home_Page" data-name="Stone Pointer - Home Page" transform="translate(-0.135 0.358)">
    <g id="Group_721" data-name="Group 721">
      <path id="Path_695" data-name="Path 695" d="M.48,54.19c.01.09.03.18.04.27a.967.967,0,0,0,.18.63c.14.14.09.32.16.48.18.38.5.73.44,1.16a1.081,1.081,0,0,0-.07,1,23.09,23.09,0,0,1,.55,2.29,4.09,4.09,0,0,1,.2,1.74.553.553,0,0,0,.03.31,2.91,2.91,0,0,1,.13.64,2.886,2.886,0,0,0,.18.8,5.182,5.182,0,0,1,.7,1.79c.06.45.02.94.44,1.31.12.11.12.26.17.39.06.2.05.42.27.57.01.02.01.04.02.06a2.733,2.733,0,0,1,.63,1.23,3,3,0,0,0,.36,1c.19.4.4.81.6,1.21.09.19.15.43.45.5.01.03.01.05.02.08-.1.21.11.37.14.57a2.533,2.533,0,0,0,.81,1.73,3.541,3.541,0,0,1,.91,1.19,6.343,6.343,0,0,0,.47.94c-.06.32.28.4.5.55a1.759,1.759,0,0,0,.41.54,13.5,13.5,0,0,1,1.41,1.73.364.364,0,0,0,.16.14c.33.19.66.37,1,.56a1.327,1.327,0,0,0,.86.65c-.03.22.3.17.38.31a.518.518,0,0,0,.26.12c.09.15.24.17.44.16a1.106,1.106,0,0,0,.59-.26c.47-.36,1.21-.54,1.37-1.14,0-.02.03-.03.05-.04a2.833,2.833,0,0,0,.91-.84l.21-.24c.08-.12.15-.24.24-.35a6.963,6.963,0,0,0,.77-.99,5.353,5.353,0,0,1,1.36-1.89,1.514,1.514,0,0,0,.31-1.05h0a.294.294,0,0,1,.12-.23,3.944,3.944,0,0,0,.83-1.09c.2-.41.22-.87.43-1.26a8.246,8.246,0,0,0,.55-1.68,1.669,1.669,0,0,1,.36-.73,1.41,1.41,0,0,0,.41-.99,3.361,3.361,0,0,1,.38-1.88c.08-.05.14-.11.12-.19a3.4,3.4,0,0,1-.02-.64c.11-.55.49-1.04.59-1.59a3.354,3.354,0,0,1,.29-.95.344.344,0,0,0-.02-.28,1.92,1.92,0,0,1,.17-1.37,1.793,1.793,0,0,0,.27-1.26c-.01-.09-.01-.18-.02-.27.12-.5.23-.99.35-1.49a3.363,3.363,0,0,0,.16-.93c-.03-.53-.07-1.06-.15-1.59-.05-.33.16-.61.17-.92a4.083,4.083,0,0,1,.15-1.04,2.6,2.6,0,0,0,.18-.73,9.233,9.233,0,0,1,.12-1.28,3.862,3.862,0,0,0-.01-.68c-.03-.41-.08-.82-.13-1.22-.06-.44.05-.89-.05-1.34-.06-.28-.26-.56-.09-.86a7.284,7.284,0,0,0,.08-1.04c.01-.06.01-.12.02-.18a.219.219,0,0,0,.02-.22,3.712,3.712,0,0,0,.01-.88,23.879,23.879,0,0,1-.34-2.66.6.6,0,0,0-.02-.35c0-.06.01-.12.01-.17-.02-.61-.03-1.23-.05-1.84a2.778,2.778,0,0,0-.11-.81v-.08a.2.2,0,0,0-.02-.2,10.019,10.019,0,0,0-.14-1.1c-.33-1.45-.44-2.93-.67-4.39a2.6,2.6,0,0,0-2.22-2.04c-.06-.04-.12-.09-.21-.04l-.48-.03a1.229,1.229,0,0,0-.66.06,6.464,6.464,0,0,0-1.48.51,3.64,3.64,0,0,1-.65.25,20.861,20.861,0,0,1-2.62.64.514.514,0,0,0-.27.12,4.865,4.865,0,0,1-.55.11,4.275,4.275,0,0,1-1.51.2,2.218,2.218,0,0,0-1.35.14,1.286,1.286,0,0,1-.7.06,5.773,5.773,0,0,1-1.34-.49l-.01.01a6.07,6.07,0,0,0-1.06-.5,19.275,19.275,0,0,1-1.81-.77,2.166,2.166,0,0,0-.95-.41.882.882,0,0,1-.63-.32.369.369,0,0,0-.3-.13,2.769,2.769,0,0,0-1.48.28.789.789,0,0,0-.48.24c-.06-.02-.06,0-.05.04l-.01-.01a4.547,4.547,0,0,0-.98.51c-.23.06-.3.24-.41.37a2.838,2.838,0,0,0-.36,1.18,18.512,18.512,0,0,0-.55,2.86C.25,37.56.24,38.64.21,39.72a15.882,15.882,0,0,1,.02,1.69,37.629,37.629,0,0,0-.08,3.97c-.01.3.15.57.16.87.02.46.11.92.15,1.39a5.21,5.21,0,0,1,.06,1.62A8.333,8.333,0,0,0,.48,51.8a5.77,5.77,0,0,1,0,1.76A.541.541,0,0,0,.48,54.19ZM13.56,79Z" fill="#c8a97c"/>
      <g id="Group_720" data-name="Group 720">
        <path id="Path_696" data-name="Path 696" d="M21.25,59.31a2.748,2.748,0,0,0,.4-.02c.13-.01.19-.08.18-.18a.16.16,0,0,0-.19-.17,4.906,4.906,0,0,1-.67-.08,2.147,2.147,0,0,1-1.11-.17,1.86,1.86,0,0,0-.96-.17,2.969,2.969,0,0,1-.88-.16,10.275,10.275,0,0,0-2.67-.31,4.678,4.678,0,0,1-1.7-.29c-.35-.13-.75-.15-1.1-.29-.04-.02-.13-.01-.13-.02-.11-.32-.52-.32-.8-.46-.04-.02-.09-.07-.11-.07-.31.13-.66.03-.97.13-.21.07-.35.09-.4-.11-.03-.12-.13-.16-.26-.21a2.146,2.146,0,0,0-1.32-.2c-.24.04-.56-.16-.83-.27a1.148,1.148,0,0,0-.55-.1,6.188,6.188,0,0,1-1.72-.13,3.054,3.054,0,0,0-1.83.26c-.02.01-.04.03-.06.02-.81-.05-1.47.45-2.28.41.05-.44-.26-.79-.44-1.16-.08-.16-.02-.34-.16-.48a.312.312,0,0,1,.11-.2.327.327,0,0,0,.13-.36c-.06-.14-.27-.04-.41-.07-.01-.09-.03-.18-.04-.27.14,0,.09-.12.16-.16.09.11.12.21.36.19.22-.02.29-.06.32-.21.02-.09.14-.13.2-.2.08-.07.22-.15.21-.22-.03-.4.36-.34.61-.33.57.02,1.14.02,1.72.01a5.315,5.315,0,0,1,.89.05,3.525,3.525,0,0,0,2.26-.47c.12-.07.08-.12.01-.18a.85.85,0,0,0-.35-.19,7.244,7.244,0,0,0-1.4-.39c-.13-.01-.22-.08-.21-.19a1.421,1.421,0,0,0,.35.03,1.447,1.447,0,0,1,.83.12,3.625,3.625,0,0,0,2.02.4,1.4,1.4,0,0,1,.51.12c.07.02.15.08.07.12-.14.07-.28.24-.47.15a1.211,1.211,0,0,0-1.14.07c-.11.06-.25.07-.23.22s.18.13.32.16c.37.07.79-.09,1.11.03a5.279,5.279,0,0,0,1.86-.02,4.545,4.545,0,0,0,2.3-.98c.09-.06.29-.12.19-.27-.08-.12-.24-.11-.38-.13a15.464,15.464,0,0,0-3.33.15,2.828,2.828,0,0,1-1.84-.07,4.69,4.69,0,0,0-1.67-.44c-.44-.06-.5,0-.48.34a6.051,6.051,0,0,1-.99-.48c-.29-.15-.63-.21-.94-.34a.383.383,0,0,0-.41.12.368.368,0,0,1-.6-.07c-.04-.06-.13-.11-.13-.17-.01-.16-.21-.35.01-.48.19-.12.32.08.46.14a9.867,9.867,0,0,0,1.24.36c.1.03.15-.02.23-.04.41-.08.82-.24,1.19.09a.575.575,0,0,0,.58.02,1.389,1.389,0,0,1,.89-.1,13.961,13.961,0,0,0,1.94-.03,2.525,2.525,0,0,1,.78.05c.45.12.93-.05,1.39.07.1.03.23-.12.39-.16a8.939,8.939,0,0,1,1.79-.13,4.913,4.913,0,0,0,.86-.08.58.58,0,0,1,.39.03,1.877,1.877,0,0,0,1.05.11c1.28-.09,2.57-.03,3.85-.07.86-.02,1.7-.14,2.56-.17.29-.01.23-.2.16-.32a.311.311,0,0,1-.01-.31c.14-.35-.13-.61-.33-.88-.04-.06-.08-.11-.12-.17.17,0,.35.07.52-.03.14-.09.46-.06.41-.23-.03-.12-.29.03-.45.01a1.477,1.477,0,0,0-.21.01c-.19.01-.29.08-.28.24-.18-.29-.54-.27-.86-.3a1.728,1.728,0,0,1-.72-.26c.13-.1.24-.04.35-.02a10.013,10.013,0,0,0,1.9.15c.29-.01.45-.05.48-.32.05-.4.38-.52.84-.37.28.09.43-.12.64-.19.14-.05.11-.18.07-.28s-.1-.19-.01-.31a.438.438,0,0,1,.3.36c.01.1.01.22.17.26-.16.3.03.59.09.86.09.45-.01.9.05,1.34.05.41.11.81.13,1.22a3.093,3.093,0,0,1,.01.68c-.06.42-.1.85-.12,1.28a3.709,3.709,0,0,1-.18.73,4.663,4.663,0,0,0-.15,1.04c-.01.31-.22.6-.17.92.08.53.12,1.06.15,1.59a3.363,3.363,0,0,1-.16.93c-.12.5-.23.99-.35,1.49-.21-.09-.15-.25-.16-.39,0-.07.01-.14-.1-.15a.216.216,0,0,0-.23.15c-.04.13.33.61.51.67a1.743,1.743,0,0,1-.27,1.26,1.92,1.92,0,0,0-.17,1.37.344.344,0,0,1,.02.28,3.354,3.354,0,0,0-.29.95c-.1.55-.48,1.04-.59,1.59-.06.03-.12.07-.2.11a1.036,1.036,0,0,1-.01-.16c.08-.22-.13-.29-.31-.34a.262.262,0,0,0-.37.21c-.03.1-.11.15-.25.17-.31.05-.54-.01-.66-.26-.31.32-.2.61.26.69a2.44,2.44,0,0,1,.62.25c.24.12.46.37.82.15a3.559,3.559,0,0,0-.38,1.88,1.455,1.455,0,0,1-.41.99,1.92,1.92,0,0,0-.36.73,7.674,7.674,0,0,1-.55,1.68c-.2.39-.22.85-.43,1.26a3.943,3.943,0,0,1-.83,1.09.327.327,0,0,0-.12.23c-.17.04-.26.24-.52.1-.12-.06-.28.13-.29.27-.01.25-.21.32-.48.34-.29.01-.5-.07-.55-.31a1.242,1.242,0,0,1,.37-1.37.607.607,0,0,0,.07-.1.759.759,0,0,1,1.06-.28.32.32,0,0,0,.32-.04c.12-.07.03-.14-.02-.19a.248.248,0,0,1-.02-.34,6.106,6.106,0,0,1,.38-.77c.17-.23-.17-.04-.2-.13.04-.12.12-.18.31-.16a4.142,4.142,0,0,0,.61-.01c.08,0,.2,0,.2-.09s-.11-.08-.19-.08c-.22.01-.42,0-.42-.23-.13,0-.2.19-.31.08a.526.526,0,0,1-.2-.41.7.7,0,0,1,.35-.52.373.373,0,0,0,.08-.63.949.949,0,0,1,.04-.91,1.045,1.045,0,0,1,1.03-.16.235.235,0,0,0,.23,0,.179.179,0,0,0,.06-.1c-.01-.09-.11-.08-.19-.09-.33-.02-.44-.27-.66-.41-.08-.05,0-.1.07-.12l.24-.06c.16-.05.16-.15.15-.26s-.08-.15-.21-.16a.5.5,0,0,1-.44-.26.884.884,0,0,0-.69-.49c-.16-.01-.24-.13-.32-.21a8.41,8.41,0,0,0-.85-.71c-.17-.15.06-.35-.16-.47-.08.04.01.17-.12.17a.16.16,0,0,1-.17-.16c0-.1-.06-.11-.16-.16a5.372,5.372,0,0,0-1.07-.35,3.23,3.23,0,0,1,.92-.17c.49-.01.97-.08,1.45-.1a3.38,3.38,0,0,0,1.18-.37,3.508,3.508,0,0,1,.84-.24,2.991,2.991,0,0,0,.65-.18c.16-.07.29-.14.19-.31-.05-.1.01-.18.16-.15.09.02.19.09.19-.06a.15.15,0,0,0-.19-.16c-.17.03-.33.06-.45-.11a1.794,1.794,0,0,1-.14.28c-.04.08-.08.17-.22.17s-.11-.1-.16-.16c-.14-.22-.71-.23-.97,0-.12.11-.22.23-.34.34a.171.171,0,0,1-.19.05c-.06-.03-.04-.08-.05-.13a1.42,1.42,0,0,1,.14-.96c.15-.23-.02-.37-.34-.33-.23.03-.34.06-.25-.2s-.31-.23-.48-.29c-.22-.07-.11.12-.13.21a1.458,1.458,0,0,1-.07.19c-.13.23-.13.23.07.44-.15.07-.41.06-.38.29.01.05-.13.04-.16-.01-.12-.25-.41-.25-.67-.29a3.249,3.249,0,0,1-.45-.07c-.11-.03-.29-.11-.2-.19.29-.31-.08-.44-.21-.63-.08-.11-.08-.16.08-.21.29-.08.2-.21.05-.32a5.267,5.267,0,0,0-1.48-.8.316.316,0,0,1-.16-.1.809.809,0,0,0-.71-.44,4.219,4.219,0,0,1,1.5-.06c.83.06,1.67.1,2.5.18.79.07,1.59.16,2.39.2.22-.06.54.04.51-.31Zm-5.07-5.99a3.147,3.147,0,0,1,.41-.04,19.767,19.767,0,0,0,2.18.07.318.318,0,0,1,.14.02,2.882,2.882,0,0,0,1.72.03,1.1,1.1,0,0,1,.54-.03,5.068,5.068,0,0,0,1.29-.09c.13-.01.47-.4.42-.49-.08-.14-.26-.17-.45-.17-.73-.01-1.45.09-2.19.09-.63,0-1.27.08-1.91.12a18.013,18.013,0,0,0-1.95.32A.178.178,0,0,0,16.18,53.32Zm-.09-.81c-.18-.14-.37-.18-.39-.35-.01-.13-.17-.13-.3-.16-.52-.12-1.07-.01-1.6-.13a.289.289,0,0,0-.31.16c-.05.1-.07.23-.21.3-.08.04-.07.09-.01.14a1.563,1.563,0,0,1,.3.57.478.478,0,0,0,.5.34,2.4,2.4,0,0,0,.9-.16c.14-.05.4-.06.2-.28-.06-.06.03-.13.12-.18A2.5,2.5,0,0,1,16.09,52.51Zm4.45-.04a.7.7,0,0,0-.72-.37c-.73.06-1.45.14-2.17.21-.11.01-.23.03-.22.15.01.1.12.14.24.13a4.163,4.163,0,0,1,.61-.01A21.9,21.9,0,0,0,20.54,52.47ZM21.41,67c.17-.03.34.01.37-.11a.289.289,0,0,0-.08-.37,5.752,5.752,0,0,0-1.32-.71.211.211,0,0,0-.23.02c-.05.06-.01.11.04.15.21.17.31.4.51.57A1.789,1.789,0,0,0,21.41,67Zm-2.22-2.4c-.51-.01-.46-.02-.36.27a2.2,2.2,0,0,0,.53.69c.06.08.11.2.25.15s.13-.17.1-.28c-.07-.25-.34-.39-.56-.53C18.97,64.79,18.98,64.72,19.19,64.6Zm-1.3-3.8a.691.691,0,0,0,.71-.26c.05-.07-.05-.13-.15-.16C17.9,60.23,18.15,60.68,17.89,60.8Zm-6.56-7.42a.613.613,0,0,0,.04.06c.15.1.66-.04.7-.2.02-.07.02-.14-.06-.18C11.88,53,11.34,53.24,11.33,53.38Z" fill="#956e46"/>
        <path id="Path_697" data-name="Path 697" d="M24.25,39.41c-.13.08-.11.23-.22.32a3.83,3.83,0,0,0-2.25-.66c.12-.19.25-.13.37-.11a2.4,2.4,0,0,0,.89.04,1.221,1.221,0,0,1,.95.28c.23-.34-.05-.71-.62-.83l-.21-.03c-.54-.03-.56-.03-.58-.48-.01-.22-.04-.39-.38-.42-.07-.01-.18-.04-.17-.12s.09-.11.17-.13a2.091,2.091,0,0,1,1.24-.14c.19.06.26-.1.23-.18-.12-.34-.03-.76-.51-.99a.439.439,0,0,1-.02-.57c.1-.07.08-.08.05-.19-.11-.36-.4-.71-.17-1.11.08-.13-.02-.24-.17-.27-.97-.21-1.35-.9-1.92-1.44a.325.325,0,0,0-.29-.12,4.633,4.633,0,0,1-1.66-.12c-.15-.03-.44-.08-.46.14-.01.16.16.29.41.29.16,0,.33-.02.14.17-.15.15.05.24.15.3.25.14.22.25.02.4a3.576,3.576,0,0,0-.29.27c.11.06.26.09.26.23,0,.02.06.05.1.07.09.04.25-.1.3.06.01.05-.06.08-.12.1-.15.04-.32.15-.47.03a.8.8,0,0,0-.61-.17c.13.2,0,.45.31.6.12.06.05.19-.04.25-.24.17-.16.41-.23.61-.03.1.09.14.2.17a.477.477,0,0,1,.28.17c.06.08.1.16.06.24-.05.1-.17.04-.25.05a2.811,2.811,0,0,1-.29.01c-.19.01-.29-.04-.25-.22.03-.12.08-.27-.22-.26-.11.01-.31-.1-.12-.26.06-.05.11-.12.06-.18-.07-.09-.14.02-.22.02a2.086,2.086,0,0,1-.25,0c-.07-.01-.14-.05-.14-.11,0-.08.1-.08.16-.08.33-.01.5-.12.42-.4,0-.02.01-.04.01-.06.01-.12.26-.18.12-.33a1.647,1.647,0,0,0-.66.28c-.07.19-.22.17-.29.04-.32-.6-1.04-.86-1.63-1.22-.16-.1-.36-.19-.35-.39a22.758,22.758,0,0,0,2.62-.64,3.64,3.64,0,0,0,.65-.25,6.166,6.166,0,0,1,1.48-.51c.02.16.17.24.3.33a.183.183,0,0,0,.16.03c.09-.04.07-.1.03-.15-.14-.17-.04-.24.17-.27l.48.03a.255.255,0,0,0,.21.04,2.638,2.638,0,0,1,2.22,2.04c.23,1.46.34,2.94.67,4.39.08.36.09.74.14,1.1-.07.08-.07.14.02.2A.491.491,0,0,1,24.25,39.41Zm-6.28-5.33.03-.01-.03-.01Z" fill="#956e46"/>
        <path id="Path_698" data-name="Path 698" d="M9.22,77.18c.18-.2.49-.1.72-.19.18-.07.4-.08.52-.23.11-.13.29-.08.43-.07s.11.13.02.17c-.41.19.06.23.08.35,0,.02.09.02.13.04.42.15.43.23.12.51-.12.11-.51.19-.26.37.17.12.31-.17.48-.25.04-.02.05-.06.08-.1.26-.31.36-.34.78-.22a.551.551,0,0,0,.38.02c.36-.14.75.04,1.12-.08.09-.03.15.03.13.12-.04.17.08.27.22.39.19.15.4.3.26.58-.08.17.16.3.31.39a.378.378,0,0,0,.44-.11.342.342,0,0,1,.53-.07c.12.08.21.07.27-.05.01-.02.01-.04.03-.05.6-.25.34-.66.28-1-.08-.44.01-.64.58-.9.11-.05.04-.12.02-.17a1.051,1.051,0,0,1,0-.7,1.155,1.155,0,0,1,.33-.47c.13-.11.29-.23-.04-.3-.06-.01-.12-.03-.1-.1a.183.183,0,0,1,.17-.06.17.17,0,0,1,.07.01,2.513,2.513,0,0,0,1.69.04c.1-.02.16-.01.21.06A5.353,5.353,0,0,0,17.86,77a6.963,6.963,0,0,1-.77.99c-.09.11-.16.23-.24.35-.11,0-.22-.13-.31-.01-.08.1.05.17.1.25a2.734,2.734,0,0,1-.91.84.1.1,0,0,0-.05.04c-.17.6-.9.77-1.37,1.14a1.072,1.072,0,0,1-.59.26c-.2.02-.35,0-.44-.16.76-.06.75-.06.9-.59.04-.15-.04-.29.04-.44.05-.1-.11-.26-.24-.21-.26.1-.34-.05-.48-.13s-.26-.24-.5-.06a.382.382,0,0,1-.46-.04c-.16-.15-.31-.05-.29.1.05.33-.24.27-.46.3-.33-.19-.67-.37-1-.56a.556.556,0,0,1-.16-.14A12.418,12.418,0,0,0,9.22,77.18Zm4.34,1.83c.02.06.04.11.13.09.02,0,.04-.03.04-.04-.02-.08-.1-.05-.17-.05.03-.03.05-.07.09-.09.4-.16.34-.25.09-.54a.515.515,0,0,0-.52-.23c-.08.01-.08-.05-.02-.09s.09-.1-.02-.11c-.09-.01-.21-.09-.29.02-.21.26-.07.59.3.67.2.05.41.06.26.3C13.41,78.97,13.49,79,13.56,79.01Zm.87.99c.53.14.51-.22.78-.35C14.8,79.63,14.75,79.9,14.43,80Z" fill="#956e46"/>
        <path id="Path_699" data-name="Path 699" d="M14.82,33.09c.06.17-.03.37.16.51.05.04.02.09-.05.12-.15.06-.35.12-.44.02-.29-.33-.58-.19-.93-.07a1.628,1.628,0,0,1-1.11.08c-.07-.03-.15-.03-.18.04-.04.12.09.15.19.16.4.04.81.08,1.21.11.35.02.69.02,1.04.03.14.01.31,0,.36.14.05.12-.05.19-.16.27-.15.09-.21.18.06.21.06.01.12.03.1.09s-.09.06-.15.07a5.318,5.318,0,0,1-1.78,0c-.25-.03-.49-.07-.74-.12-.08-.02-.23-.01-.21-.11s.16-.1.27-.1c.09,0,.19.05.3-.03-.15-.1-.18-.28-.49-.26-.22.01-.32-.23-.54-.31-.12-.05-.25-.1-.37-.15-.17-.07-.3-.02-.31.13-.01.18-.14.24-.32.3-.23.08-.25.23-.09.38a1.007,1.007,0,0,0,.99.24.424.424,0,0,1,.44.11c.09.09.12.16-.01.24a.521.521,0,0,0-.27.38.521.521,0,0,1-.27.45.269.269,0,0,0-.09.39c.1.22,0,.36-.28.4-.23.04-.31.13-.26.3.04.15-.1.31.07.46.04.04,0,.22-.12.28a.269.269,0,0,1-.34-.07c-.11-.17-.22-.11-.38-.05-.24.09-.44.25-.67.34a2.842,2.842,0,0,1-1.8.3.845.845,0,0,1-.17-.05c-.12-.07-.32-.16-.25-.27s.27-.05.42,0a1.294,1.294,0,0,0,1.28-.24c.38-.44,1.03-.52,1.53-.79.04-.02.13.02.22.04,0-.15-.11-.2-.25-.18a.953.953,0,0,1-1.06-.64.791.791,0,0,0-.61-.41c-.57-.13-.69-.38-.39-.79.13-.18-.09-.15-.2-.17-.06-.01-.15.05-.19-.02-.04-.09.07-.11.14-.14.49-.26.98-.53,1.49-.78.16-.08.17-.26.39-.28-.24-.17-.61-.21-.63-.52a4.987,4.987,0,0,0,1.34.49,1.4,1.4,0,0,0,.7-.06,2.294,2.294,0,0,1,1.35-.14,4.305,4.305,0,0,0,1.51-.2C14.46,33.18,14.64,33.12,14.82,33.09Z" fill="#956e46"/>
        <path id="Path_700" data-name="Path 700" d="M9.37,33.11c-.46.14-.83.42-1.29.58-.2.07-.16.29-.31.41-.11.09-.16.32-.31.27a.537.537,0,0,1-.4-.37.891.891,0,0,0-.17-.37c-.24-.3-.46-.29-.66.04-.14.22-.35.1-.53.1s-.23-.1-.22-.23a.186.186,0,0,1,.1-.17c.21-.15.18-.33-.09-.33a1.3,1.3,0,0,1-.9-.44,1.116,1.116,0,0,0-.78-.29.38.38,0,0,1-.41-.42.911.911,0,0,0-.26-.63,2.934,2.934,0,0,1,1.47-.28.369.369,0,0,1,.3.13.815.815,0,0,0,.63.32,2.057,2.057,0,0,1,.95.41,19.273,19.273,0,0,0,1.81.77A6.17,6.17,0,0,1,9.37,33.11Z" fill="#956e46"/>
        <path id="Path_701" data-name="Path 701" d="M24.73,46.52c-.16.04-.28.15-.47.15-.04,0-.12.03-.12.05-.03.39-.24.17-.45.11-.11-.03-.16-.13-.3-.13-.12,0-.32.06-.35-.06-.05-.15.2-.16.3-.25.07-.06.18-.1.25-.16a.461.461,0,0,0,.07-.64c-.12-.19-.34-.06-.51-.03a7.587,7.587,0,0,1-2.18.09.477.477,0,0,1-.31-.1.538.538,0,0,0,.42-.31c.06-.13.23-.11.38-.09.24.03.46.05.63-.16.1-.13.31-.07.47-.08a.937.937,0,0,0,.58-.21,1.726,1.726,0,0,1,.82-.32c.1-.01.2-.04.3-.06-.11-.23.17-.4.17-.6-.01-.28-.38-.44-.72-.33-.06.02-.12.07-.2.05a.757.757,0,0,0-.41-.72c-.1-.05-.23-.07-.19-.2.01-.05-.01-.08-.08-.11-.33-.12-.34-.15-.06-.36.05-.04.11-.07.12-.13.02-.25.15-.3.43-.17.22.1.41.26.74.11.15-.07.28.09.36.22,0,.06-.01.12-.01.17-.21.02-.33.22-.58.19-.02,0-.06.06-.06.09,0,.06.06.08.12.08.18,0,.36,0,.54-.01a23.879,23.879,0,0,0,.34,2.66,3.247,3.247,0,0,1-.01.88c-.12-.07-.29-.09-.35.02s.13.13.24.16c.03.01.06.03.09.04A.915.915,0,0,1,24.73,46.52Zm-.72-3.41a.1.1,0,0,0-.03.01c0,.01.01.03.01.04a.1.1,0,0,0,.03-.01A.076.076,0,0,0,24.01,43.11Z" fill="#956e46"/>
        <path id="Path_702" data-name="Path 702" d="M3.9,67.58c.04-.15.22-.16.36-.2a4.7,4.7,0,0,0,2.18-1.1.836.836,0,0,1-.39.95.354.354,0,0,0-.27.27c-.06.23-.33.36-.56.45a2.29,2.29,0,0,1-.6.08c-.16.01-.31,0-.34-.17-.03-.14-.2-.18-.34-.21A.172.172,0,0,1,3.9,67.58Z" fill="#956e46"/>
        <path id="Path_703" data-name="Path 703" d="M2.59,31.54a.54.54,0,0,1,.24.64c-.04.22-.31.2-.53.21a.673.673,0,0,1-.69-.33A3.673,3.673,0,0,1,2.59,31.54Z" fill="#956e46"/>
        <path id="Path_704" data-name="Path 704" d="M8.31,76.09a.479.479,0,0,0,.17-.05.426.426,0,0,1,.43-.06.217.217,0,0,1,.05.36c-.07.09.01.13.04.19.06.15-.08.12-.18.12C8.59,76.49,8.25,76.41,8.31,76.09Z" fill="#956e46"/>
        <path id="Path_705" data-name="Path 705" d="M12.65,80.26c.13-.01.25-.03.38-.04.06-.11-.24-.07-.12-.17a.26.26,0,0,1,.34.02c.22.19.15.38-.22.51C12.95,80.43,12.62,80.48,12.65,80.26Z" fill="#956e46"/>
        <path id="Path_706" data-name="Path 706" d="M5.96,71.58c.03-.04.06-.09.11-.03s-.03.09-.09.11C5.97,71.64,5.97,71.61,5.96,71.58Z" fill="#956e46"/>
        <path id="Path_707" data-name="Path 707" d="M2.65,31.5c-.06-.02-.06,0-.05.04C2.61,31.53,2.63,31.52,2.65,31.5Z" fill="#956e46"/>
        <path id="Path_708" data-name="Path 708" d="M.73,36.66c.61.01,1.2-.12,1.8-.15.2-.01.35.11.54.13a1.378,1.378,0,0,0,.67-.07c.09-.03.26-.12.26.06,0,.22.19.21.36.23.09.01.2-.02.22.09.01.05.12.09.06.15a.2.2,0,0,1-.2.02c-.1-.03-.19-.07-.29-.11a.2.2,0,0,0-.25.06c-.05.08-.01.23-.17.21a3.038,3.038,0,0,1-.67-.03,2.989,2.989,0,0,0-1.27-.33.249.249,0,0,1-.17-.08.363.363,0,0,0-.44-.08A.606.606,0,0,1,.73,36.66Z" fill="#956e46"/>
        <path id="Path_709" data-name="Path 709" d="M16.99,41.13a8.981,8.981,0,0,0,1.6.09,6.11,6.11,0,0,0,1.59-.23c.22-.08.51-.23.72.05.03.04.23,0,.35,0s.29-.01.28.11-.18.12-.29.11a11.489,11.489,0,0,0-1.76.13,7.908,7.908,0,0,1-2.12-.1A.509.509,0,0,1,16.99,41.13Z" fill="#956e46"/>
        <path id="Path_710" data-name="Path 710" d="M12.73,48.1a.722.722,0,0,0-.67-.25.224.224,0,0,1-.22-.07.908.908,0,0,0-.85-.16,1.954,1.954,0,0,1-.8-.08c-.05-.01-.09-.05-.07-.08s.07-.07.1-.06a7.2,7.2,0,0,0,1.39-.14c.08-.01.21-.01.24.03.19.26.48.15.75.14.36-.01.41.04.28.31A3.618,3.618,0,0,0,12.73,48.1Z" fill="#956e46"/>
        <path id="Path_711" data-name="Path 711" d="M3.3,34.01c-.35.23-.63.08-.89.04a3.462,3.462,0,0,0-1.29-.21c-.06.01-.13,0-.13-.06,0-.12-.07-.25.04-.36.05-.06.12-.05.19-.02a.836.836,0,0,0,.64-.02c.21-.06.5-.06.52.18.03.37.34.42.69.44A1.007,1.007,0,0,1,3.3,34.01Z" fill="#956e46"/>
        <path id="Path_712" data-name="Path 712" d="M15.55,46.95a1.9,1.9,0,0,1-.97-.05,1.839,1.839,0,0,1-.99-.5,2.2,2.2,0,0,0-1.11-.39c-.07-.02-.14,0-.21-.02s-.15-.04-.13-.11.09-.05.15-.05c.28.03.57.05.85.1.32.06.69.03.85.39.16.34.67.35,1.04.47C15.17,46.84,15.32,46.88,15.55,46.95Z" fill="#956e46"/>
        <path id="Path_713" data-name="Path 713" d="M7.88,40.26a.76.76,0,0,0-.14.01c-.18.06-.38.17-.34-.12-.34-.05-.16-.23-.14-.36.02-.18.15-.17.31-.12s.33.11.49.16c.14.05.32.08.27.25S8.12,40.31,7.88,40.26Z" fill="#956e46"/>
        <path id="Path_714" data-name="Path 714" d="M5.85,38.22c.2-.11.44-.08.54-.26.02-.04.08-.02.11.02a3.211,3.211,0,0,0,.69.43.592.592,0,0,1,.25.77c-.16-.16-.06-.33-.2-.45s-.27-.26-.46-.02c-.09.12-.13.16-.23-.03C6.45,38.46,6.46,38.04,5.85,38.22Z" fill="#956e46"/>
        <path id="Path_715" data-name="Path 715" d="M1.47,50.75c.19,0,.42-.05.44.18.01.21-.16.28-.39.29-.06,0-.12.01-.18.01-.14.01-.35.15-.4-.07-.04-.19.02-.36.33-.39A1.231,1.231,0,0,0,1.47,50.75Z" fill="#956e46"/>
        <path id="Path_716" data-name="Path 716" d="M16.72,44.06c.02-.08-.08-.21.08-.24.14-.03.2.08.26.16.21.27.08.62.3.89.01.01-.03.06-.05.06-.04,0-.12-.01-.12-.03C17.14,44.59,16.65,44.43,16.72,44.06Z" fill="#956e46"/>
        <path id="Path_717" data-name="Path 717" d="M11.65,45.58c.08.02.21-.1.25.02s-.11.12-.21.15c-.34.11-.69.22-1.03.33-.09.03-.19.08-.25-.01s.04-.13.13-.17A3.743,3.743,0,0,1,11.65,45.58Z" fill="#956e46"/>
        <path id="Path_718" data-name="Path 718" d="M15.49,42.01a2.65,2.65,0,0,0-.48-1.05.23.23,0,0,1-.04-.14c.01-.09-.08-.22.07-.25.18-.04.13.12.16.2.11.35.41.66.39,1.05C15.59,41.87,15.61,41.93,15.49,42.01Z" fill="#956e46"/>
        <path id="Path_719" data-name="Path 719" d="M19.1,45.32c.17.05.3.06.41-.11.06-.09.24-.07.37-.03.06.02.11.05.08.11a.342.342,0,0,1-.28.2c-.2.02-.4.06-.6.09a.327.327,0,0,1-.26-.05c-.04-.04.01-.07.03-.1A.2.2,0,0,1,19.1,45.32Z" fill="#956e46"/>
        <path id="Path_720" data-name="Path 720" d="M16.08,46.75c.48.34,1.16.3,1.7.53A1.916,1.916,0,0,1,16.08,46.75Z" fill="#956e46"/>
        <path id="Path_721" data-name="Path 721" d="M16.64,38.27h.22c.06,0,.12.02.13.07s-.03.09-.1.1a1.149,1.149,0,0,0-.41.17.455.455,0,0,1-.41.01.112.112,0,0,1-.06-.15c.04-.12.18-.14.31-.17A2.909,2.909,0,0,1,16.64,38.27Z" fill="#956e46"/>
        <path id="Path_722" data-name="Path 722" d="M1.09,36.93a.511.511,0,0,1,.56.25c.07.14-.1.24-.24.33-.07.05-.23.04-.17-.03C1.48,37.23,1.09,37.14,1.09,36.93Z" fill="#956e46"/>
        <path id="Path_723" data-name="Path 723" d="M5.64,46.08c.37-.15.59-.09.71.19.02.05.03.09-.03.13s-.13.02-.19-.02a1.039,1.039,0,0,1-.24-.17C5.83,46.14,5.72,46.15,5.64,46.08Z" fill="#956e46"/>
        <path id="Path_724" data-name="Path 724" d="M14.99,43.7c-.07,0-.22,0-.36-.01-.08-.01-.18-.02-.15-.12.02-.08.12-.09.2-.08.19.01.38.03.57.04.09.01.23,0,.22.09-.01.11-.15.06-.23.07A1.564,1.564,0,0,1,14.99,43.7Z" fill="#956e46"/>
        <path id="Path_725" data-name="Path 725" d="M6.64,34.69a1.944,1.944,0,0,1-.73-.53c-.04-.04-.1-.1-.02-.15s.13,0,.18.05A2.965,2.965,0,0,1,6.64,34.69Z" fill="#956e46"/>
        <path id="Path_726" data-name="Path 726" d="M10.81,38.11a1.713,1.713,0,0,1-.76.14c-.1.01-.25.02-.24-.1.01-.1.17-.16.28-.12A1.932,1.932,0,0,0,10.81,38.11Z" fill="#956e46"/>
        <path id="Path_727" data-name="Path 727" d="M7.71,34.97c-.21.13-.31.41-.73.37A.882.882,0,0,1,7.71,34.97Z" fill="#956e46"/>
        <path id="Path_728" data-name="Path 728" d="M20.26,45.09a.179.179,0,0,1,.18-.18.159.159,0,0,1,.19.13c.01.08-.01.16-.13.17S20.29,45.18,20.26,45.09Z" fill="#956e46"/>
        <path id="Path_729" data-name="Path 729" d="M.54,49.39c.1-.13.11-.27.29-.29.06-.01.19.06.15.13C.91,49.36.74,49.37.54,49.39Z" fill="#956e46"/>
        <path id="Path_730" data-name="Path 730" d="M24.17,41.06c-.09-.04-.18-.07-.19-.16,0-.06.06-.08.12-.08.11.01.17.06.17.15C24.28,41.03,24.23,41.06,24.17,41.06Z" fill="#956e46"/>
        <path id="Path_731" data-name="Path 731" d="M12.01,59.62a.5.5,0,0,1-.44-.12.727.727,0,0,0-.74-.14.743.743,0,0,1-.78-.35c-.05-.12-.01-.19.15-.2a2.484,2.484,0,0,1,.39.02c.7.13,1.42.12,2.12.19.13.01.24.03.27.14a.209.209,0,0,1-.17.28A3.9,3.9,0,0,1,12.01,59.62Z" fill="#956e46"/>
        <path id="Path_732" data-name="Path 732" d="M12.17,68.17c-.25.05-.43.18-.66.1a.478.478,0,0,0-.34.06,6.192,6.192,0,0,0-1.94,1.26c-.06.06-.12.16-.22.09-.08-.05-.02-.14.05-.2.09-.08.24-.14.01-.22-.07-.02-.05-.07.01-.11a6.969,6.969,0,0,1,2.65-1.06A.631.631,0,0,1,12.17,68.17Z" fill="#956e46"/>
        <path id="Path_733" data-name="Path 733" d="M8.52,71.43a.293.293,0,0,1-.3.09,1.5,1.5,0,0,0-1.45.35c-.15.12-.32.24-.48.12a.308.308,0,0,1-.01-.45.9.9,0,0,1,.64-.29A4.585,4.585,0,0,1,8.52,71.43Z" fill="#956e46"/>
        <path id="Path_734" data-name="Path 734" d="M6.01,66.21a.607.607,0,0,1,.39-.34,3.414,3.414,0,0,0,.74-.31.456.456,0,0,1,.5.02,1.042,1.042,0,0,0,.41.2C7.49,66.24,6.64,65.84,6.01,66.21Z" fill="#956e46"/>
        <path id="Path_735" data-name="Path 735" d="M12.93,72.06c-.37.12-.7.2-1.03.31a2.569,2.569,0,0,0-1.05.59c-.07.07-.13.11-.23.06s-.07-.11-.02-.17A2.523,2.523,0,0,1,12.93,72.06Z" fill="#956e46"/>
        <path id="Path_736" data-name="Path 736" d="M2.13,58.56c.18-.02.26.04.27.15,0,.17-.18.24-.33.26-.23.03-.2-.18-.22-.27C1.81,58.54,2.08,58.65,2.13,58.56Z" fill="#956e46"/>
        <path id="Path_737" data-name="Path 737" d="M2.09,59.94c.05-.19.07-.4.46-.31a2.326,2.326,0,0,0,.56-.06C2.82,59.79,2.38,59.74,2.09,59.94Z" fill="#956e46"/>
        <path id="Path_738" data-name="Path 738" d="M21.26,59.31c-.05-.01-.12.01-.15-.05a.022.022,0,0,1,.02-.02c.08-.02.09.03.13.07Z" fill="#956e46"/>
      </g>
    </g>
    <g id="Group_722" data-name="Group 722">
      <path id="Path_739" data-name="Path 739" d="M13.14,20.37a2.129,2.129,0,0,0-1.65.26l-.13-.23a2.441,2.441,0,0,0-.89,3.26,2.361,2.361,0,0,0,1.47,1.07,2.636,2.636,0,0,0,.62.08,2.27,2.27,0,0,0,1.18-.32,2.378,2.378,0,0,0,.83-3.09A2.24,2.24,0,0,0,13.14,20.37Zm-1.41.69Z" fill="#fff"/>
      <path id="Path_740" data-name="Path 740" d="M10.39,11.75a2.126,2.126,0,0,0,1.19,1.67,1.98,1.98,0,0,0,.8.17,2.307,2.307,0,0,0,1.24-.38,2.136,2.136,0,0,0,1.03-1.78,2.249,2.249,0,0,0-3.08-1.96l.03.07a1.14,1.14,0,0,0-.55.27A2.1,2.1,0,0,0,10.39,11.75Z" fill="#fff"/>
      <path id="Path_741" data-name="Path 741" d="M10.27,2.9a2.11,2.11,0,0,0,1.99.97h.07a3.166,3.166,0,0,0,2.49-1.05,2.112,2.112,0,0,0,.42-1.65A1.688,1.688,0,0,0,14.5,0a2.652,2.652,0,0,0-1.34-.33,4.585,4.585,0,0,0-2.25.26A1.91,1.91,0,0,0,9.83,2.22l.33-.13A1.21,1.21,0,0,0,10.27,2.9Z" fill="#fff"/>
    </g>
  </g>
</svg>
