<?xml version="1.0" encoding="utf-8"?>
<!-- Generator: Adobe Illustrator 27.2.0, SVG Export Plug-In . SVG Version: 6.00 Build 0)  -->
<svg version="1.1" id="Layer_1" xmlns="http://www.w3.org/2000/svg" xmlns:xlink="http://www.w3.org/1999/xlink" x="0px" y="0px"
	 viewBox="0 0 48 48" style="enable-background:new 0 0 48 48;" xml:space="preserve">
<style type="text/css">
	.st0{fill:#691256;}
	.st1{fill:#FFFFFF;}
	.st2{clip-path:url(#SVGID_00000101062157829175033020000017889566834929746590_);}
	.st3{fill:#C3AA82;}
	.st4{fill:#90704C;}
</style>
<g transform="translate(-1056 -641)">
	<circle class="st0" cx="1080" cy="665" r="22.4"/>
	<path class="st1" d="M1080,644c-11.6,0-21,9.4-21,21c0,8.4,5.1,16,12.8,19.3c10.7,4.4,23-0.7,27.4-11.4
		c4.4-10.6-0.6-22.7-11.1-27.3C1085.6,644.6,1082.8,644,1080,644 M1080,641c13.3,0,24,10.7,24,24s-10.7,24-24,24s-24-10.7-24-24
		S1066.7,641,1080,641z"/>
	<g transform="translate(1086.298 677.615) rotate(180)">
		<g>
			<defs>
				<rect id="SVGID_1_" x="0" y="0" width="12.6" height="25.2"/>
			</defs>
			<clipPath id="SVGID_00000140713332789163970090000011976039849844858758_">
				<use xlink:href="#SVGID_1_"  style="overflow:visible;"/>
			</clipPath>
			<g transform="translate(0 0)" style="clip-path:url(#SVGID_00000140713332789163970090000011976039849844858758_);">
				<path class="st3" d="M0.2,11.7l0,0.1c0,0.1,0,0.2,0.1,0.3c0.1,0.1,0,0.2,0.1,0.2c0.1,0.2,0.3,0.4,0.2,0.6
					c-0.1,0.2-0.1,0.3,0,0.5c0.1,0.4,0.2,0.8,0.3,1.2C1,15,1,15.3,1,15.6c0,0.1,0,0.1,0,0.2C1,15.8,1,16,1.1,16.1
					c0,0.1,0,0.3,0.1,0.4c0.2,0.3,0.3,0.6,0.4,0.9c0,0.2,0,0.5,0.2,0.7c0.1,0.1,0.1,0.1,0.1,0.2c0,0.1,0,0.2,0.1,0.3l0,0
					c0.2,0.2,0.3,0.4,0.3,0.6c0,0.2,0.1,0.3,0.2,0.5c0.1,0.2,0.2,0.4,0.3,0.6c0,0.1,0.1,0.2,0.2,0.3l0,0c0,0.1,0.1,0.2,0.1,0.3
					c0,0.3,0.2,0.6,0.4,0.9c0.2,0.2,0.4,0.4,0.5,0.6c0.1,0.2,0.1,0.3,0.2,0.5c0,0.2,0.1,0.2,0.3,0.3c0.1,0.1,0.1,0.2,0.2,0.3
					c0.3,0.3,0.5,0.6,0.7,0.9c0,0,0,0.1,0.1,0.1c0.2,0.1,0.3,0.2,0.5,0.3c0.1,0.2,0.3,0.3,0.4,0.3c0,0.1,0.2,0.1,0.2,0.2
					c0,0,0.1,0.1,0.1,0.1c0,0.1,0.1,0.1,0.2,0.1c0.1,0,0.2-0.1,0.3-0.1c0.2-0.2,0.6-0.3,0.7-0.6c0,0,0,0,0,0
					c0.2-0.1,0.3-0.2,0.5-0.4L8.5,24c0-0.1,0.1-0.1,0.1-0.2c0.1-0.2,0.3-0.3,0.4-0.5c0.2-0.4,0.4-0.7,0.7-1c0.1-0.2,0.2-0.3,0.2-0.5
					c0,0,0-0.1,0.1-0.1c0.2-0.2,0.3-0.3,0.4-0.5c0.1-0.2,0.1-0.4,0.2-0.6c0.1-0.3,0.2-0.6,0.3-0.9c0-0.1,0.1-0.3,0.2-0.4
					c0.1-0.1,0.2-0.3,0.2-0.5c0-0.3,0-0.7,0.2-1c0,0,0.1-0.1,0.1-0.1c0-0.1,0-0.2,0-0.3c0.1-0.3,0.2-0.5,0.3-0.8
					c0-0.2,0.1-0.3,0.1-0.5c0,0,0-0.1,0-0.1c-0.1-0.2,0-0.5,0.1-0.7c0.1-0.2,0.2-0.4,0.1-0.6l0-0.1c0.1-0.3,0.1-0.5,0.2-0.8
					c0-0.2,0.1-0.3,0.1-0.5c0-0.3,0-0.5-0.1-0.8c0-0.2,0.1-0.3,0.1-0.5c0-0.2,0-0.4,0.1-0.5c0-0.1,0.1-0.2,0.1-0.4
					c0-0.2,0-0.4,0.1-0.6c0-0.1,0-0.2,0-0.3c0-0.2,0-0.4-0.1-0.6c0-0.2,0-0.4,0-0.7c0-0.1-0.1-0.3,0-0.4c0-0.2,0-0.3,0-0.5
					c0,0,0-0.1,0-0.1c0,0,0-0.1,0-0.1c0-0.1,0-0.3,0-0.4c-0.1-0.4-0.1-0.9-0.2-1.3c0-0.1,0-0.1,0-0.2c0,0,0-0.1,0-0.1
					c0-0.3,0-0.6,0-0.9c0-0.1,0-0.3-0.1-0.4c0,0,0,0,0,0c0,0,0-0.1,0-0.1c0-0.2,0-0.4-0.1-0.6c-0.2-0.7-0.2-1.5-0.3-2.2
					c-0.1-0.5-0.6-1-1.1-1c0,0-0.1,0-0.1,0l-0.2,0c-0.1,0-0.2,0-0.3,0C9.8,0.3,9.5,0.4,9.3,0.6C9.2,0.6,9,0.6,8.9,0.7
					C8.5,0.8,8.1,0.9,7.6,1c0,0-0.1,0-0.1,0.1c-0.1,0-0.2,0-0.3,0.1C6.9,1.2,6.7,1.2,6.4,1.2c-0.2,0-0.5,0-0.7,0.1
					c-0.1,0-0.2,0.1-0.4,0C5.2,1.3,4.9,1.2,4.7,1.1v0C4.5,1,4.4,0.9,4.2,0.8C3.9,0.7,3.6,0.6,3.3,0.4C3.1,0.3,3,0.3,2.8,0.2
					c-0.1,0-0.2-0.1-0.3-0.2C2.4,0,2.4,0,2.3,0C2,0,1.8,0,1.6,0.1c-0.1,0-0.2,0.1-0.2,0.1c0,0,0,0,0,0h0C1.1,0.3,0.9,0.4,0.8,0.5
					c-0.1,0-0.1,0.1-0.2,0.2C0.5,0.9,0.4,1.1,0.4,1.3c-0.1,0.5-0.2,1-0.3,1.4C0.1,3.3,0.1,3.9,0,4.4c0,0.3,0,0.6,0,0.9
					c0,0.7-0.1,1.3,0,2c0,0.2,0.1,0.3,0.1,0.4c0,0.2,0.1,0.5,0.1,0.7c0.1,0.3,0.1,0.5,0,0.8c-0.1,0.4-0.1,0.9,0,1.3
					c0,0.3,0,0.6,0,0.9C0.1,11.5,0.2,11.6,0.2,11.7 M6.8,24.3L6.8,24.3z"/>
				<path class="st4" d="M10.7,14.3c0.1,0,0.1,0,0.2,0s0.1,0,0.1-0.1c0,0,0-0.1-0.1-0.1c0,0,0,0,0,0c-0.1,0-0.2,0-0.3,0
					c-0.2,0-0.4,0-0.6-0.1c-0.1-0.1-0.3-0.1-0.5-0.1c-0.2,0-0.3,0-0.4-0.1c-0.4-0.1-0.9-0.2-1.3-0.2c-0.3,0-0.6,0-0.9-0.2
					c-0.2-0.1-0.4-0.1-0.6-0.1c0,0-0.1,0-0.1,0c-0.1-0.2-0.3-0.2-0.4-0.2c0,0,0,0-0.1,0c-0.2,0.1-0.3,0-0.5,0.1
					c-0.1,0-0.2,0-0.2-0.1C5.1,13.1,5,13.1,5,13c-0.2-0.1-0.4-0.1-0.7-0.1c-0.1,0-0.3-0.1-0.4-0.1c-0.1,0-0.2-0.1-0.3,0
					c-0.3,0-0.6,0-0.9-0.1c-0.3-0.1-0.6,0-0.9,0.1c0,0,0,0,0,0C1.4,12.8,1,13,0.6,13c0-0.2-0.1-0.4-0.2-0.6c0-0.1,0-0.2-0.1-0.2
					c0,0,0-0.1,0.1-0.1c0.1,0,0.1-0.1,0.1-0.2c0-0.1-0.1,0-0.2,0c0,0,0-0.1,0-0.1c0.1,0,0-0.1,0.1-0.1c0,0.1,0.1,0.1,0.2,0.1
					s0.1,0,0.2-0.1c0,0,0.1-0.1,0.1-0.1s0.1-0.1,0.1-0.1c0-0.2,0.2-0.2,0.3-0.2c0.3,0,0.6,0,0.9,0c0.2,0,0.3,0,0.4,0
					c0.4,0.1,0.8,0,1.1-0.2c0.1,0,0-0.1,0-0.1c-0.1,0-0.1-0.1-0.2-0.1c-0.2-0.1-0.5-0.2-0.7-0.2c-0.1,0-0.1,0-0.1-0.1
					c0.1,0,0.1,0,0.2,0c0.1,0,0.3,0,0.4,0.1c0.3,0.2,0.7,0.2,1,0.2c0.1,0,0.2,0,0.3,0.1c0,0,0.1,0,0,0.1c-0.1,0-0.1,0.1-0.2,0.1
					c-0.2-0.1-0.4-0.1-0.6,0c-0.1,0-0.1,0-0.1,0.1s0.1,0.1,0.2,0.1c0.2,0,0.4,0,0.6,0c0.3,0.1,0.6,0,0.9,0c0.4-0.1,0.8-0.2,1.2-0.5
					c0,0,0.1-0.1,0.1-0.1c0-0.1-0.1-0.1-0.2-0.1c-0.6,0-1.1,0-1.7,0.1c-0.3,0.1-0.6,0.1-0.9,0c-0.3-0.1-0.6-0.2-0.8-0.2
					c-0.2,0-0.3,0-0.2,0.2c-0.2-0.1-0.3-0.1-0.5-0.2c-0.2-0.1-0.3-0.1-0.5-0.2c-0.1,0-0.2,0-0.2,0.1c-0.1,0.1-0.2,0.1-0.3,0
					c0,0,0,0,0,0c0,0-0.1-0.1-0.1-0.1c0-0.1-0.1-0.2,0-0.2s0.2,0,0.2,0.1C1.5,10,1.7,10.1,2,10.1c0,0,0.1,0,0.1,0
					c0.2,0,0.4-0.1,0.6,0c0.1,0.1,0.2,0.1,0.3,0c0.1-0.1,0.3-0.1,0.5-0.1c0.3,0,0.7,0,1,0c0.1,0,0.3,0,0.4,0c0.2,0.1,0.5,0,0.7,0
					c0.1,0,0.1-0.1,0.2-0.1C6,10,6.3,10,6.6,10c0.1,0,0.3,0,0.4,0c0.1,0,0.1,0,0.2,0C7.4,10,7.6,10.1,7.8,10c0.6,0,1.3,0,1.9,0
					c0.4,0,0.9-0.1,1.3-0.1c0.1,0,0.1-0.1,0.1-0.2c0,0,0-0.1,0-0.2c0.1-0.2-0.1-0.3-0.2-0.4c0,0,0-0.1-0.1-0.1c0.1,0,0.2,0,0.3,0
					s0.2,0,0.2-0.1c0-0.1-0.1,0-0.2,0c0,0-0.1,0-0.1,0c-0.1,0-0.1,0-0.1,0.1c-0.1-0.1-0.3-0.1-0.4-0.2c-0.1,0-0.3-0.1-0.4-0.1
					c0.1-0.1,0.1,0,0.2,0c0.3,0.1,0.6,0.1,1,0.1c0.1,0,0.2,0,0.2-0.2c0-0.2,0.2-0.3,0.4-0.2c0.1,0,0.2-0.1,0.3-0.1
					c0.1,0,0.1-0.1,0-0.1s-0.1-0.1,0-0.2c0.1,0,0.1,0.1,0.1,0.2c0,0.1,0,0.1,0.1,0.1c-0.1,0.2,0,0.3,0,0.4c0,0.2,0,0.5,0,0.7
					c0,0.2,0.1,0.4,0.1,0.6c0,0.1,0,0.2,0,0.3c0,0.2-0.1,0.4-0.1,0.6c0,0.1,0,0.2-0.1,0.4c0,0.2-0.1,0.3-0.1,0.5
					c0,0.2-0.1,0.3-0.1,0.5c0,0.3,0.1,0.5,0.1,0.8c0,0.2,0,0.3-0.1,0.5l-0.2,0.8c-0.1,0-0.1-0.1-0.1-0.2c0,0,0-0.1-0.1-0.1
					c-0.1,0-0.1,0-0.1,0.1c0,0.1,0.2,0.3,0.3,0.3c0,0.2,0,0.5-0.1,0.6c-0.1,0.2-0.1,0.5-0.1,0.7c0,0,0,0.1,0,0.1
					c-0.1,0.2-0.1,0.3-0.1,0.5c-0.1,0.3-0.2,0.5-0.3,0.8l-0.1,0.1c0,0,0-0.1,0-0.1c0-0.1-0.1-0.1-0.2-0.2c-0.1,0-0.1,0-0.2,0.1
					c0,0,0,0,0,0c0,0.1-0.1,0.1-0.1,0.1c-0.2,0-0.3,0-0.3-0.1c-0.2,0.2-0.1,0.3,0.1,0.4c0.1,0,0.2,0.1,0.3,0.1
					c0.1,0.1,0.2,0.2,0.4,0.1c-0.2,0.3-0.2,0.6-0.2,1c0,0.2-0.1,0.4-0.2,0.5c-0.1,0.1-0.1,0.2-0.2,0.4c-0.1,0.3-0.2,0.6-0.3,0.9
					c-0.1,0.2-0.1,0.4-0.2,0.6c-0.1,0.2-0.2,0.4-0.4,0.6c0,0-0.1,0.1-0.1,0.1c-0.1,0-0.1,0.1-0.3,0c-0.1,0-0.1,0.1-0.1,0.1
					c0,0.1-0.1,0.2-0.2,0.2s-0.3,0-0.3-0.2c-0.1-0.3,0-0.5,0.2-0.7c0,0,0,0,0-0.1C9.2,21,9.5,21,9.7,21.1c0,0,0,0,0,0
					c0.1,0,0.1,0,0.2,0c0.1,0,0-0.1,0-0.1c0,0-0.1-0.1,0-0.2c0.1-0.1,0.1-0.3,0.2-0.4c0.1-0.1-0.1,0-0.1-0.1c0-0.1,0.1-0.1,0.2-0.1
					c0.1,0,0.2,0,0.3,0c0,0,0.1,0,0.1,0s-0.1,0-0.1,0c-0.1,0-0.2,0-0.2-0.1c-0.1,0-0.1,0.1-0.2,0C9.9,20,9.9,20,9.9,19.9
					c0-0.1,0.1-0.2,0.2-0.3c0.1,0,0.1-0.2,0.1-0.2c0,0,0,0-0.1-0.1c-0.1-0.1-0.1-0.3,0-0.5c0.1-0.1,0.3-0.1,0.5-0.1c0,0,0.1,0,0.1,0
					c0,0,0,0,0-0.1c0,0-0.1,0-0.1,0c-0.2,0-0.2-0.1-0.3-0.2c0,0,0,0,0-0.1s0.1,0,0.1,0c0.1,0,0.1-0.1,0.1-0.1s0-0.1-0.1-0.1
					c-0.1,0-0.2-0.1-0.2-0.1c-0.1-0.1-0.2-0.2-0.4-0.2c-0.1,0-0.1-0.1-0.2-0.1c-0.1-0.1-0.3-0.3-0.4-0.4c-0.1-0.1,0-0.2-0.1-0.2
					c0,0,0,0.1-0.1,0.1c0,0-0.1,0-0.1-0.1c0,0,0,0,0,0C9.1,17,9.1,17,9,17c-0.2-0.1-0.4-0.1-0.5-0.2c0.1-0.1,0.3-0.1,0.5-0.1
					c0.2,0,0.5,0,0.7,0c0.2,0,0.4-0.1,0.6-0.2c0.1-0.1,0.3-0.1,0.4-0.1c0.1,0,0.2,0,0.3-0.1c0.1,0,0.1-0.1,0.1-0.2
					c0,0,0-0.1,0.1-0.1c0,0,0.1,0,0.1,0c0,0,0-0.1-0.1-0.1c0,0,0,0,0,0c-0.1,0-0.2,0-0.2-0.1c0,0.1,0,0.1-0.1,0.1s0,0.1-0.1,0.1
					s-0.1,0-0.1-0.1c-0.1-0.1-0.4-0.1-0.5,0c-0.1,0.1-0.1,0.1-0.2,0.2c0,0-0.1,0-0.1,0c0,0,0,0,0-0.1c0-0.2,0-0.3,0.1-0.5
					c0.1-0.1,0-0.2-0.2-0.2c-0.1,0-0.2,0-0.1-0.1s-0.2-0.1-0.2-0.1c-0.1,0-0.1,0.1-0.1,0.1c0,0,0,0.1,0,0.1c-0.1,0.1-0.1,0.1,0,0.2
					c-0.1,0-0.2,0-0.2,0.1c0,0-0.1,0-0.1,0c-0.1-0.1-0.2-0.1-0.3-0.1c-0.1,0-0.2,0-0.2,0c-0.1,0-0.1-0.1-0.1-0.1
					c0.1-0.2,0-0.2-0.1-0.3c0-0.1,0-0.1,0-0.1c0.1,0,0.1-0.1,0-0.2c-0.2-0.2-0.5-0.3-0.7-0.4c0,0-0.1,0-0.1-0.1
					c-0.1-0.1-0.2-0.2-0.4-0.2c0.2-0.1,0.5-0.1,0.8,0c0.4,0,0.8,0.1,1.3,0.1c0.4,0,0.8,0.1,1.2,0.1C10.6,14.4,10.7,14.5,10.7,14.3
					L10.7,14.3z M8.2,11.3c0.1,0,0.1,0,0.2,0c0.4,0,0.7,0,1.1,0c0,0,0,0,0.1,0c0.3,0.1,0.6,0.1,0.9,0c0.1,0,0.2,0,0.3,0
					c0.2,0,0.4,0,0.7,0c0.1,0,0.2-0.2,0.2-0.2c-0.1-0.1-0.1-0.1-0.2-0.1c-0.4,0-0.7,0-1.1,0c-0.3,0-0.6,0-1,0.1
					C8.9,11.1,8.6,11.2,8.2,11.3C8.2,11.2,8.2,11.2,8.2,11.3 M8.1,10.9c-0.1-0.1-0.2-0.1-0.2-0.2c0-0.1-0.1-0.1-0.2-0.1
					c-0.3-0.1-0.5,0-0.8-0.1c-0.1,0-0.1,0-0.2,0.1c0,0.1,0,0.1-0.1,0.1c0,0,0,0,0,0.1c0.1,0.1,0.1,0.2,0.2,0.3
					c0,0.1,0.1,0.2,0.3,0.2c0.2,0,0.3,0,0.5-0.1c0.1,0,0.2,0,0.1-0.1c0,0,0-0.1,0.1-0.1C7.8,10.9,8,10.9,8.1,10.9 M10.4,10.9
					c-0.1-0.1-0.2-0.2-0.4-0.2c-0.4,0-0.7,0.1-1.1,0.1c-0.1,0-0.1,0-0.1,0.1s0.1,0.1,0.1,0.1c0.1,0,0.2,0,0.3,0
					C9.6,10.9,10,10.9,10.4,10.9 M10.8,18.2c0.1,0,0.2,0,0.2-0.1s0-0.1,0-0.2c-0.2-0.1-0.4-0.3-0.7-0.4c0,0-0.1,0-0.1,0
					c0,0,0,0.1,0,0.1c0.1,0.1,0.2,0.2,0.3,0.3C10.5,18.1,10.7,18.2,10.8,18.2 M9.7,17c-0.3,0-0.2,0-0.2,0.1c0.1,0.1,0.2,0.3,0.3,0.3
					c0,0,0.1,0.1,0.1,0.1s0.1-0.1,0.1-0.1c0-0.1-0.2-0.2-0.3-0.3C9.6,17.1,9.6,17.1,9.7,17 M9,15.1c0.1,0,0.3,0,0.4-0.1
					c0,0,0-0.1-0.1-0.1C9,14.8,9.2,15,9,15.1 M5.7,11.3C5.7,11.3,5.7,11.3,5.7,11.3c0.1,0.1,0.4,0,0.4-0.1c0,0,0-0.1,0-0.1
					C6,11.1,5.7,11.3,5.7,11.3"/>
				<path class="st4" d="M12.2,4.3c-0.1,0-0.1,0.1-0.1,0.2c-0.3-0.2-0.7-0.3-1.1-0.3C11.1,4,11.1,4,11.2,4c0.1,0,0.3,0,0.4,0
					c0.2,0,0.3,0,0.5,0.1c0.1-0.2,0-0.4-0.3-0.4c0,0-0.1,0-0.1,0c-0.3,0-0.3,0-0.3-0.2c0-0.1,0-0.2-0.2-0.2c0,0-0.1,0-0.1-0.1
					s0-0.1,0.1-0.1c0.2-0.1,0.4-0.1,0.6-0.1c0.1,0,0.1-0.1,0.1-0.1c-0.1-0.2,0-0.4-0.3-0.5c-0.1,0-0.1-0.2,0-0.3c0,0,0,0,0-0.1
					c-0.1-0.2-0.2-0.4-0.1-0.6c0-0.1,0-0.1-0.1-0.1c-0.5-0.1-0.7-0.5-1-0.7c0,0-0.1-0.1-0.1-0.1c-0.3,0-0.6,0-0.8-0.1
					c-0.1,0-0.2,0-0.2,0.1c0,0.1,0.1,0.1,0.2,0.1c0.1,0,0.2,0,0.1,0.1C9.5,1,9.7,1,9.7,1c0.1,0.1,0.1,0.1,0,0.2
					c-0.1,0-0.1,0.1-0.1,0.1c0.1,0,0.1,0,0.1,0.1c0,0,0,0,0,0c0,0,0.1,0,0.1,0c0,0,0,0-0.1,0c-0.1,0-0.2,0.1-0.2,0
					C9.5,1.6,9.4,1.5,9.3,1.5c0.1,0.1,0,0.2,0.2,0.3c0.1,0,0,0.1,0,0.1C9.3,2.1,9.3,2.2,9.3,2.3c0,0.1,0,0.1,0.1,0.1
					c0.1,0,0.1,0,0.1,0.1c0,0,0,0.1,0,0.1c0,0.1-0.1,0-0.1,0s-0.1,0-0.1,0c-0.1,0-0.1,0-0.1-0.1c0-0.1,0-0.1-0.1-0.1
					C9,2.4,8.9,2.3,9,2.2c0,0,0.1-0.1,0-0.1s-0.1,0-0.1,0c0,0-0.1,0-0.1,0c0,0-0.1,0-0.1-0.1s0,0,0.1,0C9,2,9.1,2,9,1.9c0,0,0,0,0,0
					c0-0.1,0.1-0.1,0.1-0.2C9,1.7,8.9,1.7,8.8,1.8c0,0.1-0.1,0.1-0.1,0C8.5,1.5,8.1,1.4,7.8,1.2C7.7,1.2,7.6,1.1,7.6,1
					c0.4-0.1,0.9-0.2,1.3-0.3c0.1,0,0.2-0.1,0.3-0.1C9.5,0.4,9.8,0.3,10,0.3c0,0.1,0.1,0.1,0.2,0.2c0,0,0.1,0,0.1,0c0,0,0,0,0,0
					c0,0,0,0,0,0c-0.1-0.1,0-0.1,0.1-0.1l0.2,0c0,0,0.1,0,0.1,0c0.6,0.1,1,0.5,1.1,1c0.1,0.7,0.2,1.5,0.3,2.2c0,0.2,0.1,0.4,0.1,0.6
					C12.2,4.2,12.2,4.2,12.2,4.3C12.2,4.2,12.2,4.2,12.2,4.3 M9.1,1.6L9.1,1.6L9.1,1.6L9.1,1.6z"/>
				<path class="st4" d="M4.6,23.4c0.1-0.1,0.2,0,0.4-0.1c0.1,0,0.2,0,0.3-0.1s0.1,0,0.2,0s0.1,0.1,0,0.1c-0.2,0.1,0,0.1,0,0.2
					c0,0,0,0,0.1,0c0.2,0.1,0.2,0.1,0.1,0.3c-0.1,0.1-0.3,0.1-0.1,0.2c0.1,0.1,0.2-0.1,0.2-0.1c0,0,0,0,0,0c0.1-0.2,0.2-0.2,0.4-0.1
					c0.1,0,0.1,0,0.2,0c0.2-0.1,0.4,0,0.6,0c0,0,0.1,0,0.1,0c0,0,0,0,0,0c0,0.1,0,0.1,0.1,0.2c0.1,0.1,0.2,0.2,0.1,0.3
					c0,0.1,0.1,0.2,0.2,0.2c0.1,0,0.2,0,0.2-0.1c0.1-0.1,0.2-0.1,0.2-0.1c0,0,0,0,0,0c0.1,0,0.1,0,0.1,0c0,0,0,0,0,0
					c0.3-0.1,0.2-0.3,0.1-0.5c0-0.2,0-0.3,0.3-0.5c0.1,0,0-0.1,0-0.1c0-0.1,0-0.2,0-0.4c0-0.1,0.1-0.2,0.2-0.2
					c0.1-0.1,0.1-0.1,0-0.2c0,0-0.1,0-0.1,0s0,0,0.1,0c0,0,0,0,0,0c0.3,0.1,0.6,0.1,0.9,0c0,0,0.1,0,0.1,0c-0.3,0.3-0.5,0.6-0.7,1
					c-0.1,0.2-0.2,0.3-0.4,0.5c0,0.1-0.1,0.1-0.1,0.2c-0.1,0-0.1-0.1-0.2,0s0,0.1,0.1,0.1c-0.1,0.2-0.3,0.3-0.5,0.4c0,0,0,0,0,0
					c-0.1,0.3-0.5,0.4-0.7,0.6c-0.1,0.1-0.2,0.1-0.3,0.1c-0.1,0-0.2,0-0.2-0.1c0.4,0,0.4,0,0.5-0.3c0-0.1,0-0.1,0-0.2
					c0-0.1-0.1-0.1-0.1-0.1c-0.1,0-0.2,0-0.2-0.1s-0.1-0.1-0.3,0c-0.1,0-0.2,0-0.2,0c-0.1-0.1-0.2,0-0.1,0.1c0,0.2-0.1,0.1-0.2,0.2
					c-0.2-0.1-0.3-0.2-0.5-0.3c0,0-0.1,0-0.1-0.1C5.1,23.9,4.9,23.6,4.6,23.4 M6.8,24.3C6.8,24.3,6.9,24.4,6.8,24.3
					C6.9,24.3,6.9,24.3,6.8,24.3C6.9,24.3,6.9,24.3,6.8,24.3C6.9,24.3,6.9,24.3,6.8,24.3c0.2-0.1,0.2-0.2,0.1-0.3
					c-0.1-0.1-0.2-0.1-0.3-0.1c0,0,0,0,0,0s0-0.1,0-0.1s-0.1,0-0.1,0c-0.1,0.1,0,0.3,0.2,0.3C6.7,24.1,6.9,24.1,6.8,24.3
					C6.8,24.3,6.8,24.3,6.8,24.3 M7.3,24.8c0.3,0.1,0.3-0.1,0.4-0.2C7.5,24.6,7.4,24.7,7.3,24.8"/>
				<path class="st4" d="M7.5,1.1c0,0.1,0,0.2,0.1,0.3c0,0,0,0,0,0.1c-0.1,0-0.2,0.1-0.2,0C7.2,1.2,7,1.3,6.8,1.4
					c-0.2,0.1-0.4,0.1-0.6,0c0,0-0.1,0-0.1,0c0,0.1,0,0.1,0.1,0.1c0.2,0,0.4,0,0.6,0.1c0.2,0,0.4,0,0.5,0c0.1,0,0.2,0,0.2,0.1
					s0,0.1-0.1,0.1c-0.1,0-0.1,0.1,0,0.1c0,0,0.1,0,0,0s0,0-0.1,0C7.2,2,6.9,2,6.6,2c-0.1,0-0.2,0-0.4-0.1c0,0-0.1,0-0.1-0.1
					s0.1,0,0.1,0s0.1,0,0.2,0C6.4,1.7,6.3,1.6,6.2,1.6C6.1,1.7,6,1.5,5.9,1.5c-0.1,0-0.1,0-0.2-0.1c-0.1,0-0.2,0-0.2,0.1
					c0,0.1-0.1,0.1-0.2,0.2c-0.1,0-0.1,0.1,0,0.2C5.5,2,5.7,2,5.9,1.9c0.1,0,0.2,0,0.2,0.1c0,0,0.1,0.1,0,0.1C6,2.2,6,2.2,5.9,2.3
					c0,0.1-0.1,0.2-0.1,0.2c-0.1,0-0.1,0.1-0.1,0.2c0,0,0,0,0,0c0,0.1,0,0.2-0.1,0.2C5.5,3,5.5,3,5.5,3.1s-0.1,0.2,0,0.2
					c0,0,0,0.1-0.1,0.1c-0.1,0-0.1,0-0.2,0c-0.1-0.1-0.1-0.1-0.2,0C5,3.5,4.9,3.5,4.8,3.6C4.5,3.7,4.2,3.8,3.8,3.7c0,0-0.1,0-0.1,0
					c-0.1,0-0.2-0.1-0.1-0.1s0.1,0,0.2,0c0.2,0.1,0.5,0,0.6-0.1C4.7,3.2,5,3.2,5.3,3c0,0,0.1,0,0.1,0C5.4,3,5.3,3,5.3,3
					C5,3,4.8,2.9,4.7,2.6C4.7,2.5,4.5,2.5,4.4,2.4C4.1,2.4,4.1,2.3,4.2,2C4.3,2,4.2,2,4.1,2c0,0-0.1,0-0.1,0s0-0.1,0.1-0.1
					c0.2-0.1,0.5-0.3,0.8-0.4c0.1,0,0.1-0.1,0.2-0.1C4.9,1.2,4.7,1.2,4.7,1.1c0.2,0.1,0.4,0.2,0.7,0.2c0.1,0,0.2,0,0.4,0
					C6,1.2,6.2,1.2,6.4,1.2c0.3,0,0.5,0,0.8-0.1C7.3,1.1,7.4,1.1,7.5,1.1"/>
				<path class="st4" d="M4.7,1.1C4.5,1.2,4.3,1.3,4.1,1.4C4,1.4,4,1.5,3.9,1.6c-0.1,0-0.1,0.2-0.2,0.1c-0.1,0-0.2-0.1-0.2-0.2
					c0-0.1,0-0.1-0.1-0.2c-0.1-0.1-0.2-0.1-0.3,0C3.1,1.5,2.9,1.4,2.9,1.4s-0.1,0-0.1-0.1c0,0,0-0.1,0.1-0.1C2.9,1.1,2.9,1,2.7,1
					C2.6,1,2.4,1,2.3,0.8C2.2,0.7,2,0.7,1.9,0.7c-0.1,0-0.2-0.1-0.2-0.2c0,0,0,0,0,0c0-0.1,0-0.2-0.1-0.3C1.8,0,2,0,2.3,0
					c0.1,0,0.1,0,0.2,0.1c0.1,0.1,0.2,0.2,0.3,0.2c0.2,0,0.3,0.1,0.5,0.2c0.3,0.2,0.6,0.2,0.9,0.4C4.4,0.9,4.5,1,4.7,1.1"/>
				<path class="st4" d="M12.5,7.9c-0.1,0-0.2,0.1-0.2,0.1c0,0-0.1,0-0.1,0C12.2,8.2,12.1,8,12,8C11.9,8,11.9,8,11.8,8s-0.2,0-0.2,0
					s0.1-0.1,0.2-0.1s0.1-0.1,0.1-0.1c0.1-0.1,0.1-0.2,0-0.3c0,0,0,0,0,0c-0.1-0.1-0.2,0-0.3,0c-0.4,0.1-0.7,0.1-1.1,0
					c-0.1,0-0.1,0-0.2-0.1c0.1,0,0.2-0.1,0.2-0.2c0-0.1,0.1-0.1,0.2,0c0.1,0,0.2,0,0.3-0.1c0-0.1,0.2,0,0.2,0c0.1,0,0.2,0,0.3-0.1
					c0.1-0.1,0.3-0.1,0.4-0.2c0.1,0,0.1,0,0.2,0c-0.1-0.1,0.1-0.2,0.1-0.3c0-0.1-0.2-0.2-0.4-0.2c0,0-0.1,0-0.1,0
					c0-0.2-0.1-0.3-0.2-0.4c-0.1,0-0.1,0-0.1-0.1c0,0,0,0,0-0.1c-0.2-0.1-0.2-0.1,0-0.2c0,0,0.1,0,0.1-0.1c0-0.1,0.1-0.1,0.2-0.1
					c0.1,0.1,0.2,0.1,0.4,0.1c0.1,0,0.1,0,0.2,0.1c0,0,0,0.1,0,0.1c-0.1,0-0.2,0.1-0.3,0.1c0,0,0,0,0,0s0,0,0.1,0c0.1,0,0.2,0,0.3,0
					c0,0.5,0.1,0.9,0.2,1.3c0,0.1,0,0.3,0,0.4c-0.1,0-0.1,0-0.2,0S12.4,7.7,12.5,7.9L12.5,7.9C12.5,7.8,12.5,7.8,12.5,7.9 M12.1,6.1
					L12.1,6.1C12.1,6.1,12.1,6.1,12.1,6.1L12.1,6.1C12.1,6.1,12.1,6.1,12.1,6.1"/>
				<path class="st4" d="M1.9,18.5c0-0.1,0.1-0.1,0.2-0.1c0.4-0.1,0.8-0.3,1.1-0.6c0.1,0.2,0,0.4-0.2,0.5c-0.1,0-0.1,0.1-0.1,0.1
					c0,0.1-0.2,0.2-0.3,0.2c-0.1,0-0.2,0-0.3,0c-0.1,0-0.2,0-0.2-0.1C2.1,18.6,2,18.6,1.9,18.5L1.9,18.5"/>
				<path class="st4" d="M1.3,0.3c0.1,0.1,0.2,0.2,0.1,0.3c0,0.1-0.2,0.1-0.3,0.1c-0.1,0-0.3,0-0.3-0.2C0.9,0.4,1.1,0.3,1.3,0.3"/>
				<path class="st4" d="M4.2,22.8C4.2,22.8,4.2,22.8,4.2,22.8c0.1-0.1,0.2-0.1,0.3-0.1c0.1,0,0.1,0.1,0.1,0.1c0,0,0,0,0,0
					c0,0,0,0.1,0,0.1c0,0.1,0,0.1-0.1,0.1C4.3,23,4.1,23,4.2,22.8"/>
				<path class="st4" d="M6.4,24.9l0.2,0c0-0.1-0.1,0-0.1-0.1c0.1,0,0.1,0,0.2,0c0.1,0.1,0.1,0.2-0.1,0.3C6.5,25,6.4,25,6.4,24.9"/>
				<path class="st4" d="M3,20.5C3,20.5,3,20.5,3,20.5C3.1,20.6,3,20.6,3,20.5C3,20.6,3,20.6,3,20.5"/>
				<path class="st4" d="M1.3,0.3C1.3,0.3,1.3,0.3,1.3,0.3L1.3,0.3"/>
				<path class="st4" d="M0.3,2.9c0.3,0,0.6-0.1,0.9-0.1c0.1,0,0.2,0.1,0.3,0.1c0.1,0,0.2,0,0.3,0c0,0,0.1-0.1,0.1,0
					C2,3,2.1,3,2.2,3c0,0,0.1,0,0.1,0c0,0,0.1,0,0,0.1c0,0-0.1,0-0.1,0c-0.1,0-0.1,0-0.1-0.1C2,3,2,3,2,3.1c0,0,0,0.1-0.1,0.1
					c-0.1,0-0.2,0-0.3,0C1.3,3.1,1.1,3,0.9,3c0,0-0.1,0-0.1,0c-0.1-0.1-0.1-0.1-0.2,0C0.5,2.9,0.4,2.9,0.3,2.9"/>
				<path class="st4" d="M8.6,5.1c0.3,0,0.5,0.1,0.8,0c0.3,0,0.5,0,0.8-0.1c0.1,0,0.3-0.1,0.4,0c0,0,0.1,0,0.2,0s0.1,0,0.1,0.1
					s-0.1,0.1-0.1,0.1c-0.3,0-0.6,0-0.9,0.1c-0.4,0-0.7,0-1.1-0.1C8.7,5.2,8.6,5.2,8.6,5.1"/>
				<path class="st4" d="M6.4,8.7C6.3,8.6,6.2,8.5,6.1,8.5c0,0-0.1,0-0.1,0C5.8,8.4,5.7,8.4,5.5,8.4c-0.1,0-0.3,0-0.4,0c0,0,0,0,0,0
					c0,0,0,0,0.1,0c0.2,0,0.5,0,0.7-0.1c0,0,0.1,0,0.1,0c0.1,0.1,0.2,0.1,0.4,0.1c0.2,0,0.2,0,0.1,0.2C6.5,8.5,6.4,8.6,6.4,8.7"/>
				<path class="st4" d="M1.6,1.5c-0.2,0.1-0.3,0-0.5,0C1,1.5,0.8,1.4,0.5,1.4c0,0-0.1,0-0.1,0c0-0.1,0-0.1,0-0.2c0,0,0.1,0,0.1,0
					c0.1,0,0.2,0,0.3,0c0.1,0,0.3,0,0.3,0.1c0,0.2,0.2,0.2,0.4,0.2L1.6,1.5"/>
				<path class="st4" d="M7.8,8.1c-0.2,0-0.3,0-0.5,0C7.2,8,7,7.9,6.9,7.8C6.7,7.7,6.5,7.6,6.3,7.6c0,0-0.1,0-0.1,0s-0.1,0-0.1-0.1
					s0,0,0.1,0c0.1,0,0.3,0,0.4,0.1c0.2,0,0.3,0,0.4,0.2S7.4,7.9,7.6,8C7.7,8,7.7,8,7.8,8.1"/>
				<path class="st4" d="M4,4.7C3.9,4.7,3.9,4.7,4,4.7c-0.2,0-0.3,0.1-0.2-0.1c-0.2,0-0.1-0.1-0.1-0.2c0-0.1,0.1-0.1,0.2-0.1L4,4.5
					c0.1,0,0.2,0,0.1,0.1S4.1,4.7,4,4.7"/>
				<path class="st4" d="M2.9,3.7c0.1-0.1,0.2,0,0.3-0.1c0,0,0,0,0.1,0c0.1,0.1,0.2,0.2,0.4,0.2C3.8,3.8,3.8,4,3.7,4.1
					C3.7,4.1,3.7,4,3.6,3.9s-0.1-0.1-0.2,0c0,0.1-0.1,0.1-0.1,0S3.2,3.6,2.9,3.7"/>
				<path class="st4" d="M0.7,10c0.1,0,0.2,0,0.2,0.1s-0.1,0.1-0.2,0.1l-0.1,0c-0.1,0-0.2,0.1-0.2,0c0-0.1,0-0.2,0.2-0.2L0.7,10"/>
				<path class="st4" d="M8.4,6.6c0,0,0-0.1,0-0.1s0.1,0,0.1,0.1c0.1,0.1,0,0.3,0.2,0.5c0,0,0,0,0,0s-0.1,0-0.1,0
					C8.6,6.9,8.4,6.8,8.4,6.6"/>
				<path class="st4" d="M5.9,7.4c0,0,0.1,0,0.1,0S5.9,7.5,5.9,7.4C5.7,7.5,5.5,7.6,5.4,7.6c0,0-0.1,0-0.1,0s0-0.1,0.1-0.1
					C5.5,7.5,5.7,7.4,5.9,7.4"/>
				<path class="st4" d="M7.8,5.6c0-0.2-0.1-0.4-0.2-0.5c0,0,0,0,0-0.1c0,0,0-0.1,0-0.1c0.1,0,0.1,0.1,0.1,0.1
					C7.7,5.1,7.9,5.3,7.8,5.6C7.9,5.5,7.8,5.6,7.8,5.6"/>
				<path class="st4" d="M9.6,7.3c0.1,0,0.1,0,0.2-0.1c0,0,0.1,0,0.2,0c0,0,0.1,0,0,0.1c0,0.1-0.1,0.1-0.1,0.1c-0.1,0-0.2,0-0.3,0
					c0,0-0.1,0-0.1,0c0,0,0,0,0-0.1C9.5,7.3,9.6,7.2,9.6,7.3"/>
				<path class="st4" d="M8.1,8C8.3,8.1,8.7,8.1,9,8.2C8.7,8.3,8.3,8.2,8.1,8"/>
				<path class="st4" d="M8.4,3.7c0,0,0.1,0,0.1,0s0.1,0,0.1,0s0,0,0,0.1c-0.1,0-0.1,0-0.2,0.1c-0.1,0-0.1,0-0.2,0c0,0,0,0,0-0.1
					c0-0.1,0.1-0.1,0.2-0.1C8.3,3.7,8.3,3.7,8.4,3.7"/>
				<path class="st4" d="M0.5,3c0.1,0,0.2,0,0.3,0.1c0,0.1-0.1,0.1-0.1,0.2c0,0-0.1,0-0.1,0C0.7,3.2,0.5,3.1,0.5,3"/>
				<path class="st4" d="M2.8,7.6c0.2-0.1,0.3,0,0.4,0.1c0,0,0,0.1,0,0.1c0,0-0.1,0-0.1,0C3,7.8,3,7.7,3,7.7
					C2.9,7.7,2.9,7.7,2.8,7.6"/>
				<path class="st4" d="M7.6,6.4c0,0-0.1,0-0.2,0c0,0-0.1,0-0.1-0.1s0.1,0,0.1,0c0.1,0,0.2,0,0.3,0c0,0,0.1,0,0.1,0s-0.1,0-0.1,0
					S7.6,6.4,7.6,6.4"/>
				<path class="st4" d="M3.3,1.9C3.2,1.8,3.1,1.7,3,1.6c0,0-0.1,0,0-0.1s0.1,0,0.1,0C3.2,1.6,3.3,1.8,3.3,1.9"/>
				<path class="st4" d="M5.4,3.6C5.3,3.7,5.2,3.7,5.1,3.7c0,0-0.1,0-0.1,0S5,3.5,5.1,3.6C5.2,3.6,5.3,3.6,5.4,3.6"/>
				<path class="st4" d="M3.9,2C3.8,2.1,3.7,2.2,3.5,2.2C3.6,2.1,3.7,2,3.9,2"/>
				<path class="st4" d="M10.2,7.1C10.2,7.1,10.3,7,10.2,7.1c0.1-0.1,0.2-0.1,0.2,0c0,0,0,0,0,0c0,0,0,0.1,0,0.1c0,0,0,0,0,0
					C10.3,7.2,10.2,7.2,10.2,7.1"/>
				<path class="st4" d="M0.2,9.3c0.1-0.1,0.1-0.1,0.1-0.1c0,0,0.1,0,0.1,0.1C0.4,9.3,0.4,9.3,0.2,9.3"/>
				<path class="st4" d="M12.2,5.1c0,0-0.1,0-0.1-0.1c0,0,0,0,0.1,0C12.2,5,12.2,5,12.2,5.1C12.3,5.1,12.2,5.1,12.2,5.1"/>
				<path class="st4" d="M6,14.5c-0.1,0-0.2,0-0.2-0.1c-0.1-0.1-0.2-0.1-0.4-0.1c-0.2,0-0.3,0-0.4-0.2c0-0.1,0-0.1,0.1-0.1
					c0.1,0,0.1,0,0.2,0c0.4,0.1,0.7,0.1,1.1,0.1c0.1,0,0.1,0,0.1,0.1c0,0.1,0,0.1-0.1,0.1c0,0,0,0,0,0C6.3,14.4,6.2,14.5,6,14.5"/>
				<path class="st4" d="M6.1,18.8c-0.1,0-0.2,0.1-0.3,0.1c-0.1,0-0.1,0-0.2,0c-0.4,0.1-0.7,0.4-1,0.6c0,0-0.1,0.1-0.1,0
					s0-0.1,0-0.1s0.1-0.1,0-0.1c0,0,0,0,0-0.1C5,19,5.4,18.9,5.9,18.8C6,18.8,6.1,18.8,6.1,18.8"/>
				<path class="st4" d="M4.3,20.5c0,0-0.1,0.1-0.2,0c-0.3-0.1-0.5,0-0.7,0.2c-0.1,0.1-0.2,0.1-0.2,0.1c-0.1-0.1-0.1-0.2,0-0.2
					c0,0,0,0,0,0c0.1-0.1,0.2-0.1,0.3-0.1C3.7,20.3,4,20.4,4.3,20.5"/>
				<path class="st4" d="M3,17.8c0-0.1,0.1-0.1,0.2-0.2c0.1,0,0.3-0.1,0.4-0.2c0.1,0,0.2,0,0.3,0c0.1,0,0.1,0.1,0.2,0.1
					C3.8,17.8,3.3,17.6,3,17.8"/>
				<path class="st4" d="M6.5,20.8c-0.2,0.1-0.4,0.1-0.5,0.2c-0.2,0.1-0.4,0.2-0.5,0.3c0,0-0.1,0.1-0.1,0s0-0.1,0-0.1
					C5.6,20.9,6.1,20.7,6.5,20.8"/>
				<path class="st4" d="M1.1,14c0.1,0,0.1,0,0.1,0.1c0,0.1-0.1,0.1-0.2,0.1c-0.1,0-0.1-0.1-0.1-0.1C0.9,13.9,1,14,1.1,14"/>
				<path class="st4" d="M1,14.7c0-0.1,0-0.2,0.2-0.2c0.1,0,0.2,0,0.3,0C1.4,14.6,1.2,14.5,1,14.7"/>
				<path class="st4" d="M10.7,14.3C10.7,14.3,10.7,14.3,10.7,14.3C10.7,14.3,10.7,14.3,10.7,14.3C10.7,14.3,10.7,14.3,10.7,14.3
					L10.7,14.3"/>
			</g>
		</g>
	</g>
</g>
</svg>
