<svg xmlns="http://www.w3.org/2000/svg" width="27.534" height="152.32" viewBox="0 0 27.534 152.32">
    <g id="Group_80" data-name="Group 80" transform="translate(3.64 -0.359)">
        <path id="Path_74" data-name="Path 74" d="M0,0V152.32" transform="translate(9.86 0.359)" fill="none"
            stroke="#f3bb41" stroke-width="3" />
        <g id="Group_34" data-name="Group 34" transform="translate(3.703 56.231)">
            <circle id="Ellipse_2" data-name="Ellipse 2" cx="13.767" cy="13.767" r="13.767"
                transform="translate(-7.344 6.628)" fill="#f3bb41" />
            <g id="Group_33" data-name="Group 33" transform="translate(-3.343 13.628)">
                <path id="Path_4" data-name="Path 4"
                    d="M5.744,7.335.289,1.734A1,1,0,0,1,.336.279,1.1,1.1,0,0,1,1.845.324l3.9,4,3.9-4A1.1,1.1,0,0,1,11.154.279,1,1,0,0,1,11.2,1.734Z"
                    transform="translate(8.335 1) rotate(90)" fill="#730159" />
                <path id="Path_4-2" data-name="Path 4"
                    d="M5.744,7.335.289,1.734A1,1,0,0,1,.336.279,1.1,1.1,0,0,1,1.845.324l3.9,4,3.9-4A1.1,1.1,0,0,1,11.154.279,1,1,0,0,1,11.2,1.734Z"
                    transform="translate(12 12.49) rotate(-90)" fill="#730159" />
            </g>
        </g>
    </g>
</svg>