<svg id="Group_80" data-name="Group 80" xmlns="http://www.w3.org/2000/svg" width="49" height="376.581" viewBox="0 0 49 376.581">
  <path id="Path_74" data-name="Path 74" d="M0,0V376.581" transform="translate(24.25)" fill="none" stroke="#f3bb41" stroke-width="5"/>
  <g id="Group_34" data-name="Group 34" transform="translate(0 166.543)">
    <circle id="Ellipse_2" data-name="Ellipse 2" cx="24.5" cy="24.5" r="24.5" fill="#f3bb41"/>
    <g id="Group_33" data-name="Group 33" transform="translate(9 16)">
      <path id="Path_3" data-name="Path 3" d="M8.075,10.688.407,2.527A1.5,1.5,0,1,1,2.593.473L8.075,6.307,13.56.473a1.5,1.5,0,1,1,2.186,2.055Z" transform="translate(20.69 16.153) rotate(-90)" fill="#730159"/>
      <path id="Path_4" data-name="Path 4" d="M8.075,10.688.407,2.527A1.5,1.5,0,1,1,2.593.473L8.075,6.307,13.56.473a1.5,1.5,0,1,1,2.186,2.055Z" transform="translate(10.688 0.001) rotate(90)" fill="#730159"/>
    </g>
  </g>
</svg>
